# xmcd
#
# Track frame offsets:
#	150
#	23423
#	52481
#	74514
#	113840
#	117472
#	142876
#
# Disc length: 2353 seconds
#
# Revision: 1
# Processed by: cddbd v1.5.1PL0 Copyright (c) Steve Scherf et al.
# Submitted via: CDex 1.50Beta5
#
DISCID=64092f07
DTITLE=さだまさし - 瑠璃光 薬師寺ライブ2001 disk3
DYEAR=1900
DGENRE=Folk
TTITLE0=トーク6 元気と勇気
TTITLE1=舞姫
TTITLE2=まほろば
TTITLE3=防人の詩
TTITLE4=トーク7 アンコールあいさつ
TTITLE5=主人公
TTITLE6=最期の夢
EXTD=
EXTT0=
EXTT1=
EXTT2=
EXTT3=
EXTT4=
EXTT5=
EXTT6=
PLAYORDER=
